# xmcd
#
# Track frame offsets: 
#        183
#        14950
#        33898
#        43923
#        56110
#        67450
#        80700
#        94978
#        113545
#        126803
#
# Disc length: 1847 seconds
#
# Revision: 0
# Processed by: cddbd v1.5.1PL0 Copyright (c) Steve Scherf et al.
# Submitted via: ExactAudioCopy v0.95a5
#
DISCID=9507350a
DTITLE=Hal Bruce - Goin, Home
DYEAR=1992
DGENRE=Country
TTITLE0=I'am Going Home
TTITLE1=Seem Like Only Yesterday
TTITLE2=I'll Cry Instead
TTITLE3=It's Over
TTITLE4=Gonna Make You Mine
TTITLE5=The Legend Of My Love
TTITLE6=No Place To Turn
TTITLE7=One Night In America
TTITLE8=On and On
TTITLE9=The Hired Hand Band
EXTD=
EXTT0=
EXTT1=
EXTT2=
EXTT3=
EXTT4=
EXTT5=
EXTT6=
EXTT7=
EXTT8=
EXTT9=
PLAYORDER=
